<svg  xmlns="http://www.w3.org/2000/svg" xmlns:xlink="http://www.w3.org/1999/xlink" width="940" height="300" viewBox="0 0 964 324"><path transform="translate(0 100)" d="M52.8,-61.7L86.4,-61.7L86.4,-19.4L52.8,-19.4L52.8,9.9L44.8,9.9L44.8,-19.4L11.5,-19.4L11.5,-61.7L44.8,-61.7L44.8,-81.1L52.8,-80.7L52.8,-61.7ZM19.3,-54.3L19.3,-26.8L44.8,-26.8L44.8,-54.3L19.3,-54.3ZM52.8,-26.8L78.7,-26.8L78.7,-54.3L52.8,-54.3L52.8,-26.8Z"></path><path transform="translate(98 100)" d="M90.9,9.1Q77.8,4.2 67.6,-1.25Q57.4,-6.7 49.6,-13.4Q42,-6.9 31.8,-1.35Q21.6,4.2 7.9,9.5L3.7,1.8Q17.2,-2.8 27.05,-7.8Q36.9,-12.8 44,-18.6Q36.3,-26.4 30.95,-36.2Q25.6,-46 22.2,-58.4L6.9,-58.4L6.9,-65.6L45.7,-65.6Q43,-74.6 41.2,-79.3L49,-81Q49.6,-79.5 50.8,-75.8Q52,-72.1 52.8,-69.8Q53.2,-68.3 54.1,-65.6L90.8,-65.6L90.8,-58.4L75.1,-58.4Q72,-45.6 67.15,-35.9Q62.3,-26.2 55,-18.6Q62.2,-12.8 71.9,-8Q81.6,-3.2 94.5,1.1L90.9,9.1ZM30.3,-58.4Q33.3,-47.4 38,-38.85Q42.7,-30.3 49.4,-23.6Q55.9,-30.3 60.1,-38.75Q64.3,-47.2 67,-58.4L30.3,-58.4Z"></path><path transform="translate(196 100)" d="M11,-75.7L86.7,-75.7L86.7,-4.3Q86.7,0.8 85.5,3.45Q84.3,6.1 81.2,7.25Q78.1,8.4 71.8,8.7L65.8,9.1L63.3,1.7L70.6,1.3Q74.5,1.1 76.35,0.5Q78.2,-0.1 78.9,-1.65Q79.6,-3.2 79.6,-6.4L79.6,-68.7L18,-68.7L18,8.9L11,8.9L11,-75.7ZM43.6,-12.4Q41.9,-17.9 37.6,-27.7Q30.5,-12.8 24.2,-3.5L18.7,-7.6Q26.3,-18.7 33.9,-35.8Q27.4,-49.4 22.4,-57.1L27.7,-60.3Q31.9,-54 37.1,-43.7Q40.4,-51.8 44.1,-63.1L50.6,-60.8Q46,-47.4 41.1,-35.8Q47.2,-23 49.3,-16.8L43.6,-12.4ZM73.1,-5.6Q70.3,-13.8 63.8,-27Q57.3,-13.6 49.4,-2L43.9,-6Q52.5,-18.6 59.9,-34.7Q53.8,-46.7 49.4,-52.9L54.7,-56.7Q57.7,-52.4 63.3,-42.4Q67.3,-51.7 70.5,-62.1L76.9,-59.8Q72.6,-46.3 67.4,-34.6Q75,-19.9 78.7,-9.9L73.1,-5.6Z"></path><path transform="translate(294 100)" d="M17.3,-61.9L17.3,-47.6L9.7,-47.6L9.7,-69.1L45.9,-69.1Q43.6,-76.8 42.5,-79.3L50.3,-80.7Q51.6,-77.3 54.2,-69.1L88.4,-69.1L88.4,-47.5L80.7,-47.5L80.7,-61.9L17.3,-61.9ZM92.4,-26.2L92.4,-19L53.7,-19L53.7,-3.7Q53.7,1.4 52.7,3.75Q51.7,6.1 49.3,7Q46.9,7.9 41.5,8.4L33.8,9.1L31.3,1.8L38.9,1.2Q42.1,0.9 43.45,0.4Q44.8,-0.1 45.3,-1.4Q45.8,-2.7 45.8,-5.8L45.8,-19L5.5,-19L5.5,-26.2L45.8,-26.2L45.8,-31.8L63.2,-43.2L21.6,-43.2L21.6,-50.4L75.9,-50.4L75.9,-43.3L53.7,-28.9L53.7,-26.2L92.4,-26.2Z"></path><path transform="translate(392 100)" d="M27.8,-56.8Q25.3,-61 21.2,-66.25Q17.1,-71.5 13.3,-75.6L18.6,-80.1Q22.2,-76.6 26.7,-71.15Q31.2,-65.7 33.5,-62L27.8,-56.8ZM67.4,-46.8L93.8,-46.8L93.8,-39.2L67.4,-39.2L67.4,9.4L59.6,9.4L59.6,-39.2L35,-39.2L35,-46.8L59.6,-46.8L59.6,-79.5L67.4,-79.2L67.4,-46.8ZM26.7,-7.2L44.3,-20.2L47,-12.8L26.3,1.9Q22.9,4.4 20.5,6.9L15.7,1.3Q17.7,-0.3 18.3,-1.5Q18.9,-2.7 18.9,-4.6L18.9,-41.7L4.9,-41.7L4.9,-49.2L26.7,-49.2L26.7,-7.2Z"></path><path transform="translate(490 100)" d="M54.6,-53.7L26,-48.7Q27.2,-33.7 29.1,-23.9Q38.3,-33.8 44.4,-45.8L50.3,-42.1Q42.3,-27 31.1,-15.8Q33,-9.1 35.7,-4.8Q37.5,-1.9 38.8,-0.8Q40.1,0.3 41.3,0.3Q42.9,0.3 44,-1.25Q45.1,-2.8 46,-6.8Q47.3,-12.8 47.7,-16.1L54.2,-13Q53.1,-7.4 51.9,-2.9Q49,8.5 41.3,8.5Q38.2,8.5 35.25,6.35Q32.3,4.2 29.2,-1.1Q26.8,-5.3 25.1,-10.3Q17.5,-4 8,1.9L3.4,-3.4Q14.4,-10 23,-17.9Q20.2,-29.9 18.9,-47.5L6.3,-45.3L5.3,-52.1L18.4,-54.3L18.1,-60.4Q17.3,-77 17.3,-79.6L24.7,-79.2L25.4,-59.4L25.6,-55.5L53.6,-60.3L54.6,-53.7ZM80,-79.6L87.1,-79.1L87.1,-3.2Q87.1,1 86.15,3.15Q85.2,5.3 82.7,6.35Q80.2,7.4 75.1,7.8L66.3,8.5L64,1.3L73.2,0.6Q76.3,0.4 77.65,-0.1Q79,-0.6 79.5,-1.85Q80,-3.1 80,-5.9L80,-79.6ZM42.2,-60.4Q39.6,-63.8 36.1,-67.5Q32.6,-71.2 29.6,-73.7L33.7,-77.9Q36.7,-75.5 40.3,-71.85Q43.9,-68.2 46.6,-64.9L42.2,-60.4ZM61,-71.7L68,-71.2L68,-12.5L61,-12.5L61,-71.7Z"></path><path transform="translate(0 200)" d="M51.1,-61.4L30.9,-61.4L30.9,-0L21.9,-0L21.9,-61.4L1.6,-61.4L1.6,-69.4L51.1,-69.4L51.1,-61.4Z"></path><path transform="translate(53 200)" d="M35,-55Q40.3,-55 43.8,-53.7Q47.3,-52.4 49.35,-50.05Q51.4,-47.7 52.25,-44.5Q53.1,-41.3 53.1,-37.4L53.1,-0L44.5,-0L44.5,-34.2Q44.5,-37.3 44.1,-39.75Q43.7,-42.2 42.55,-43.85Q41.4,-45.5 39.35,-46.4Q37.3,-47.3 34.1,-47.3Q31.5,-47.3 29.05,-46.95Q26.6,-46.6 24.45,-45.45Q22.3,-44.3 20.55,-42.2Q18.8,-40.1 17.7,-36.5L17.7,-0L9.1,-0L9.1,-76L17.7,-76L17.7,-46.3Q18.9,-48.9 20.85,-50.6Q22.8,-52.3 25.1,-53.25Q27.4,-54.2 29.95,-54.6Q32.5,-55 35,-55Z"></path><path transform="translate(115 200)" d="M52,-32.4Q52,-31.3 51.85,-29.65Q51.7,-28 51.5,-26.1L14.9,-23.8Q14.9,-19.4 15.8,-16.15Q16.7,-12.9 18.7,-10.8Q20.7,-8.7 24,-7.65Q27.3,-6.6 32.2,-6.6Q36.7,-6.6 41.35,-7.6Q46,-8.6 49.1,-10.1L49.1,-2.2Q47.9,-1.6 46,-1Q44.1,-0.4 41.7,0.05Q39.3,0.5 36.55,0.75Q33.8,1 30.9,1Q24.9,1 20.25,-0.35Q15.6,-1.7 12.4,-4.95Q9.2,-8.2 7.55,-13.55Q5.9,-18.9 5.9,-27Q5.9,-35.1 7.55,-40.45Q9.2,-45.8 12.35,-49.05Q15.5,-52.3 20.05,-53.65Q24.6,-55 30.4,-55Q37.3,-55 41.55,-52.95Q45.8,-50.9 48.1,-47.65Q50.4,-44.4 51.2,-40.35Q52,-36.3 52,-32.4ZM43.5,-32.3Q43.5,-35.4 43.1,-38.25Q42.7,-41.1 41.35,-43.25Q40,-45.4 37.4,-46.65Q34.8,-47.9 30.4,-47.9Q25.7,-47.9 22.75,-46.7Q19.8,-45.5 18.1,-43.2Q16.4,-40.9 15.7,-37.6Q15,-34.3 14.9,-30.2L43.5,-32.3Z"></path><path transform="translate(173 200)" d=""></path><path transform="translate(199 200)" d="M9.2,-69.4L28.5,-69.4Q35.8,-69.4 40.7,-68.1Q45.6,-66.8 48.55,-64.1Q51.5,-61.4 52.7,-57.2Q53.9,-53 53.9,-47.2Q53.9,-41.1 52.45,-36.8Q51,-32.5 47.95,-29.8Q44.9,-27.1 40.05,-25.85Q35.2,-24.6 28.5,-24.6L18.2,-24.6L18.2,-0L9.2,-0L9.2,-69.4ZM27.7,-32.1Q32.5,-32.1 35.8,-32.8Q39.1,-33.5 41.05,-35.25Q43,-37 43.85,-39.9Q44.7,-42.8 44.7,-47.2Q44.7,-51.2 43.85,-53.95Q43,-56.7 41.05,-58.4Q39.1,-60.1 35.8,-60.85Q32.5,-61.6 27.7,-61.6L18.2,-61.6L18.2,-32.1L27.7,-32.1Z"></path><path transform="translate(259 200)" d="M35.9,-55L35.6,-47.2L34.4,-47.2Q31.8,-47.2 29.3,-46.7Q26.8,-46.2 24.6,-44.85Q22.4,-43.5 20.6,-41.2Q18.8,-38.9 17.7,-35.3L17.7,-0L9.1,-0L9.1,-54L17.7,-54L17.7,-44.2Q19,-47.6 20.9,-49.7Q22.8,-51.8 25.1,-53Q27.4,-54.2 29.95,-54.6Q32.5,-55 34.9,-55L35.9,-55Z"></path><path transform="translate(295 200)" d="M30.9,1Q24.9,1 20.25,-0.35Q15.6,-1.7 12.4,-4.95Q9.2,-8.2 7.55,-13.55Q5.9,-18.9 5.9,-27Q5.9,-35.1 7.55,-40.45Q9.2,-45.8 12.4,-49.05Q15.6,-52.3 20.25,-53.65Q24.9,-55 30.9,-55Q36.9,-55 41.55,-53.65Q46.2,-52.3 49.35,-49.05Q52.5,-45.8 54.15,-40.45Q55.8,-35.1 55.8,-27Q55.8,-18.9 54.15,-13.55Q52.5,-8.2 49.35,-4.95Q46.2,-1.7 41.55,-0.35Q36.9,1 30.9,1ZM30.9,-6.3Q35.5,-6.3 38.55,-7.3Q41.6,-8.3 43.4,-10.7Q45.2,-13.1 45.95,-17.1Q46.7,-21.1 46.7,-27Q46.7,-32.9 45.9,-36.9Q45.1,-40.9 43.25,-43.3Q41.4,-45.7 38.35,-46.75Q35.3,-47.8 30.9,-47.8Q26.4,-47.8 23.35,-46.75Q20.3,-45.7 18.45,-43.3Q16.6,-40.9 15.85,-36.9Q15.1,-32.9 15.1,-27Q15.1,-21.1 15.9,-17.1Q16.7,-13.1 18.6,-10.7Q20.5,-8.3 23.5,-7.3Q26.5,-6.3 30.9,-6.3Z"></path><path transform="translate(357 200)" d="M13.5,-63.9Q10.6,-63.9 9.45,-64.8Q8.3,-65.7 8.3,-69Q8.3,-72.4 9.45,-73.25Q10.6,-74.1 13.5,-74.1Q16.2,-74.1 17.4,-73.25Q18.6,-72.4 18.6,-69Q18.6,-65.7 17.4,-64.8Q16.2,-63.9 13.5,-63.9ZM-0.7,20Q-2.3,20 -3.85,19.85Q-5.4,19.7 -7,19.5L-7,12.4Q-5.6,12.6 -3.8,12.75Q-2,12.9 -0.1,12.9Q2.8,12.9 4.6,12.2Q6.4,11.5 7.4,9.8Q8.4,8.1 8.75,5.3Q9.1,2.5 9.1,-1.6L9.1,-54L17.7,-54L17.7,-0.7Q17.7,5.8 16.55,9.85Q15.4,13.9 13.1,16.15Q10.8,18.4 7.35,19.2Q3.9,20 -0.7,20Z"></path><path transform="translate(384 200)" d="M52,-32.4Q52,-31.3 51.85,-29.65Q51.7,-28 51.5,-26.1L14.9,-23.8Q14.9,-19.4 15.8,-16.15Q16.7,-12.9 18.7,-10.8Q20.7,-8.7 24,-7.65Q27.3,-6.6 32.2,-6.6Q36.7,-6.6 41.35,-7.6Q46,-8.6 49.1,-10.1L49.1,-2.2Q47.9,-1.6 46,-1Q44.1,-0.4 41.7,0.05Q39.3,0.5 36.55,0.75Q33.8,1 30.9,1Q24.9,1 20.25,-0.35Q15.6,-1.7 12.4,-4.95Q9.2,-8.2 7.55,-13.55Q5.9,-18.9 5.9,-27Q5.9,-35.1 7.55,-40.45Q9.2,-45.8 12.35,-49.05Q15.5,-52.3 20.05,-53.65Q24.6,-55 30.4,-55Q37.3,-55 41.55,-52.95Q45.8,-50.9 48.1,-47.65Q50.4,-44.4 51.2,-40.35Q52,-36.3 52,-32.4ZM43.5,-32.3Q43.5,-35.4 43.1,-38.25Q42.7,-41.1 41.35,-43.25Q40,-45.4 37.4,-46.65Q34.8,-47.9 30.4,-47.9Q25.7,-47.9 22.75,-46.7Q19.8,-45.5 18.1,-43.2Q16.4,-40.9 15.7,-37.6Q15,-34.3 14.9,-30.2L43.5,-32.3Z"></path><path transform="translate(442 200)" d="M30.9,1Q24.9,1 20.25,-0.35Q15.6,-1.7 12.4,-4.95Q9.2,-8.2 7.55,-13.55Q5.9,-18.9 5.9,-27Q5.9,-35.1 7.55,-40.45Q9.2,-45.8 12.4,-49.05Q15.6,-52.3 20.25,-53.65Q24.9,-55 30.9,-55Q35.4,-55 39.05,-54.4Q42.7,-53.8 45,-53L45,-45.1Q42,-46.2 38.6,-46.85Q35.2,-47.5 31,-47.5Q26.5,-47.5 23.5,-46.5Q20.5,-45.5 18.6,-43.15Q16.7,-40.8 15.9,-36.85Q15.1,-32.9 15.1,-26.9Q15.1,-21 15.9,-17.1Q16.7,-13.2 18.6,-10.85Q20.5,-8.5 23.55,-7.55Q26.6,-6.6 31.1,-6.6Q34.9,-6.6 38.6,-7.15Q42.3,-7.7 45.2,-8.9L45.2,-1Q44.1,-0.6 42.45,-0.25Q40.8,0.1 38.85,0.4Q36.9,0.7 34.85,0.85Q32.8,1 30.9,1Z"></path><path transform="translate(492 200)" d="M25.9,-6.6Q27.7,-6.6 29.05,-6.75Q30.4,-6.9 31.8,-7.2L31.8,0.1Q30.2,0.3 28.8,0.45Q27.4,0.6 25.7,0.6Q21.2,0.6 18.15,-0.05Q15.1,-0.7 13.15,-2.6Q11.2,-4.5 10.35,-7.85Q9.5,-11.2 9.5,-16.5L9.5,-46.8L1.5,-46.8L1.5,-54L9.5,-54L9.5,-66.8L18.1,-66.8L18.1,-54L31.5,-54L31.5,-46.8L18.1,-46.8L18.1,-17Q18.1,-13.8 18.4,-11.8Q18.7,-9.8 19.55,-8.65Q20.4,-7.5 21.9,-7.05Q23.4,-6.6 25.9,-6.6Z"></path><path transform="translate(526 200)" d=""></path><path transform="translate(552 200)" d="M18.2,-61.4L18.2,-38.9L45.8,-38.9L45.8,-30.9L18.2,-30.9L18.2,-0L9.2,-0L9.2,-69.4L47.8,-69.4L47.8,-61.4L18.2,-61.4Z"></path><path transform="translate(605 200)" d="M30.9,1Q24.9,1 20.25,-0.35Q15.6,-1.7 12.4,-4.95Q9.2,-8.2 7.55,-13.55Q5.9,-18.9 5.9,-27Q5.9,-35.1 7.55,-40.45Q9.2,-45.8 12.4,-49.05Q15.6,-52.3 20.25,-53.65Q24.9,-55 30.9,-55Q36.9,-55 41.55,-53.65Q46.2,-52.3 49.35,-49.05Q52.5,-45.8 54.15,-40.45Q55.8,-35.1 55.8,-27Q55.8,-18.9 54.15,-13.55Q52.5,-8.2 49.35,-4.95Q46.2,-1.7 41.55,-0.35Q36.9,1 30.9,1ZM30.9,-6.3Q35.5,-6.3 38.55,-7.3Q41.6,-8.3 43.4,-10.7Q45.2,-13.1 45.95,-17.1Q46.7,-21.1 46.7,-27Q46.7,-32.9 45.9,-36.9Q45.1,-40.9 43.25,-43.3Q41.4,-45.7 38.35,-46.75Q35.3,-47.8 30.9,-47.8Q26.4,-47.8 23.35,-46.75Q20.3,-45.7 18.45,-43.3Q16.6,-40.9 15.85,-36.9Q15.1,-32.9 15.1,-27Q15.1,-21.1 15.9,-17.1Q16.7,-13.1 18.6,-10.7Q20.5,-8.3 23.5,-7.3Q26.5,-6.3 30.9,-6.3Z"></path><path transform="translate(667 200)" d="M35.9,-55L35.6,-47.2L34.4,-47.2Q31.8,-47.2 29.3,-46.7Q26.8,-46.2 24.6,-44.85Q22.4,-43.5 20.6,-41.2Q18.8,-38.9 17.7,-35.3L17.7,-0L9.1,-0L9.1,-54L17.7,-54L17.7,-44.2Q19,-47.6 20.9,-49.7Q22.8,-51.8 25.1,-53Q27.4,-54.2 29.95,-54.6Q32.5,-55 34.9,-55L35.9,-55Z"></path><path transform="translate(705 200)" d=""></path><path transform="translate(731 200)" d="M2.6,-69.4L12,-69.4L25,-10.5L25.6,-10.5L39.7,-61.3L50.5,-61.3L64.6,-10.5L65.2,-10.5L78.1,-69.4L87.2,-69.4L70.7,-0L59.3,-0L45.2,-51.4L44.6,-51.4L30.2,-0L18.8,-0L2.6,-69.4Z"></path><path transform="translate(819 200)" d="M52,-32.4Q52,-31.3 51.85,-29.65Q51.7,-28 51.5,-26.1L14.9,-23.8Q14.9,-19.4 15.8,-16.15Q16.7,-12.9 18.7,-10.8Q20.7,-8.7 24,-7.65Q27.3,-6.6 32.2,-6.6Q36.7,-6.6 41.35,-7.6Q46,-8.6 49.1,-10.1L49.1,-2.2Q47.9,-1.6 46,-1Q44.1,-0.4 41.7,0.05Q39.3,0.5 36.55,0.75Q33.8,1 30.9,1Q24.9,1 20.25,-0.35Q15.6,-1.7 12.4,-4.95Q9.2,-8.2 7.55,-13.55Q5.9,-18.9 5.9,-27Q5.9,-35.1 7.55,-40.45Q9.2,-45.8 12.35,-49.05Q15.5,-52.3 20.05,-53.65Q24.6,-55 30.4,-55Q37.3,-55 41.55,-52.95Q45.8,-50.9 48.1,-47.65Q50.4,-44.4 51.2,-40.35Q52,-36.3 52,-32.4ZM43.5,-32.3Q43.5,-35.4 43.1,-38.25Q42.7,-41.1 41.35,-43.25Q40,-45.4 37.4,-46.65Q34.8,-47.9 30.4,-47.9Q25.7,-47.9 22.75,-46.7Q19.8,-45.5 18.1,-43.2Q16.4,-40.9 15.7,-37.6Q15,-34.3 14.9,-30.2L43.5,-32.3Z"></path><path transform="translate(877 200)" d="M35.2,-55Q42,-55 46.35,-52.95Q50.7,-50.9 53.15,-47.2Q55.6,-43.5 56.55,-38.35Q57.5,-33.2 57.5,-27Q57.5,-21.4 56.55,-16.35Q55.6,-11.3 53.15,-7.45Q50.7,-3.6 46.35,-1.3Q42,1 35.2,1Q27.3,1 23.35,-1.8Q19.4,-4.6 17.7,-9.4L16.6,-0L9.1,-0L9.1,-76L17.7,-76L17.7,-44.3Q19.4,-49.1 23.4,-52.05Q27.4,-55 35.2,-55ZM34.1,-6.3Q38.9,-6.3 41.75,-8.05Q44.6,-9.8 46.1,-12.7Q47.6,-15.6 48.05,-19.35Q48.5,-23.1 48.5,-27Q48.5,-31.2 48,-35Q47.5,-38.8 46,-41.65Q44.5,-44.5 41.65,-46.15Q38.8,-47.8 34.1,-47.8Q29.2,-47.8 26,-46.35Q22.8,-44.9 20.85,-42.2Q18.9,-39.5 18.1,-35.65Q17.3,-31.8 17.3,-27Q17.3,-22.3 18.1,-18.5Q18.9,-14.7 20.85,-12Q22.8,-9.3 26,-7.8Q29.2,-6.3 34.1,-6.3Z"></path></svg>