<svg  xmlns="http://www.w3.org/2000/svg" xmlns:xlink="http://www.w3.org/1999/xlink" width="959" height="300" viewBox="0 0 983 324"><path transform="translate(0 100)" d="M54.9,-63.3L87.6,-63.3L87.6,-17.9L54.9,-17.9L54.9,10L43.7,10L43.7,-17.9L10.3,-17.9L10.3,-63.3L43.7,-63.3L43.7,-80.8L54.9,-80.3L54.9,-63.3ZM21.8,-52.2L21.8,-28.6L43.7,-28.6L43.7,-52.2L21.8,-52.2ZM54.9,-28.6L76.3,-28.6L76.3,-52.2L54.9,-52.2L54.9,-28.6Z"></path><path transform="translate(98 100)" d="M89.2,9.7Q76.2,4.9 66.35,-0.25Q56.5,-5.4 49,-11.4Q41.7,-5.4 31.9,-0.2Q22.1,5 8.9,10.2L3.8,-1.1Q16,-5.3 25.05,-9.65Q34.1,-14 40.8,-19Q34.1,-26.1 29.35,-35.15Q24.6,-44.2 21.3,-55.9L7.2,-55.9L7.2,-66.6L43.7,-66.6Q41.2,-75.9 39.9,-79.6L51.3,-81.2Q52.4,-78.3 55.7,-66.6L90.6,-66.6L90.6,-55.9L76.2,-55.9Q73.1,-44.1 68.45,-35.05Q63.8,-26 57,-18.8Q63.8,-13.8 72.8,-9.65Q81.8,-5.5 93.7,-1.8L89.2,9.7ZM33,-55.9Q37.8,-37.6 48.8,-26Q54.3,-31.8 58.05,-39.1Q61.8,-46.4 64.2,-55.9L33,-55.9Z"></path><path transform="translate(196 100)" d="M10.2,-76.8L87.6,-76.8L87.6,-3.9Q87.6,1.3 86.65,4Q85.7,6.7 82.95,8.05Q80.2,9.4 74.3,9.9L67.7,10.4L64.2,-0.5L70.3,-0.8Q74.3,-1 75.7,-2.4Q77.1,-3.8 77.1,-7L77.1,-10.4L71.4,-5.6Q68.1,-13.2 63.5,-22.8Q57.7,-11 51,-0.9L42.8,-6.8Q47.6,-14.4 49.8,-18.4L42.5,-12.6L37.7,-23.6Q31.9,-11.4 26.1,-2.6L20.7,-6.7L20.7,9.1L10.2,9.1L10.2,-76.8ZM58,-34.2Q52.9,-44.6 49.4,-50.5L57,-56Q59,-52.6 63,-45.4Q66.4,-53.8 68.7,-61.7L77.1,-58.4L77.1,-66.8L20.7,-66.8L20.7,-12.6Q27,-22.9 32.5,-35Q25.8,-49.4 22,-56L29.7,-61.1Q32.3,-56.5 37.4,-46.5Q41.1,-56 43.2,-62.8L52,-59.4Q47.6,-46.3 43,-35.2L50.4,-19.4Q54.7,-27.1 58,-34.2ZM77.1,-16.9L77.1,-58.1Q73.6,-45.8 68.7,-34.3Q74,-23.9 77.1,-16.9Z"></path><path transform="translate(294 100)" d="M19.8,-59.9L19.8,-47.2L8.8,-47.2L8.8,-70.3L43.5,-70.3Q42.3,-75.3 40.9,-79.6L53.1,-81.5L55.3,-74.2L56.4,-70.3L89.7,-70.3L89.7,-47.1L78.5,-47.1L78.5,-59.9L19.8,-59.9ZM92.5,-27.5L92.5,-17L55,-17L55,-3.9Q55,1.6 54,4.25Q53,6.9 50.4,8.05Q47.8,9.2 42.4,9.6L34.4,10.2L31,-0.5L38.5,-1Q41.9,-1.3 42.9,-2.45Q43.9,-3.6 43.9,-7L43.9,-17L5.3,-17L5.3,-27.5L43.9,-27.5L43.9,-32.6L58.2,-41.6L22.2,-41.6L22.2,-51.8L76,-51.8L76,-41.2L55,-27.8L55,-27.5L92.5,-27.5Z"></path><path transform="translate(392 100)" d="M26.4,-53.7Q24.5,-57.3 20.05,-63.65Q15.6,-70 12.5,-74L20.5,-80.6Q23.6,-77.5 28.1,-71.7Q32.6,-65.9 35,-62.1L26.4,-53.7ZM69.4,-48.1L93.2,-48.1L93.2,-37L69.4,-37L69.4,9.8L57.9,9.8L57.9,-37L35.8,-37L35.8,-48.1L57.9,-48.1L57.9,-80.5L69.4,-80.1L69.4,-48.1ZM29.1,-12.2L43.1,-23.7L46.6,-12.4L44.6,-11Q43.3,-10 37.9,-6Q32.5,-2 27.3,2.4Q26.3,3.2 24.6,4.9L22.2,7.1L15.3,-1.2Q17.1,-2.3 17.5,-3.65Q17.9,-5 17.9,-7.8L17.9,-39.4L5.9,-39.4L5.9,-50.6L29.1,-50.6L29.1,-12.2Z"></path><path transform="translate(490 100)" d="M45.5,-16.7L54.8,-12Q54.4,-9 53.1,-4.6L52.5,-2.4Q50.9,4.1 47.95,7.1Q45,10.1 40.6,10.1Q37.1,10.1 33.95,7.65Q30.8,5.2 27.2,-1Q25.4,-4.1 23.8,-8.5Q17.2,-3.1 7.4,3L1.9,-6.4Q12.3,-12.7 20.7,-19.6Q18.6,-29.3 17.2,-44.9L6.1,-43L4.6,-53.3L16.5,-55.3L16.2,-60.8Q16.1,-65 15.7,-71.4L15.3,-80.5L26.2,-80Q26.4,-72.5 26.9,-59.8L27,-57.1L41,-59.4Q38.6,-62.7 35.1,-66.6Q31.6,-70.5 28.7,-73.2L34.3,-79.3Q37.2,-77 40.6,-73.65Q44,-70.3 46.8,-66.9L41,-59.4L53.2,-61.5L54.4,-51.4L27.6,-46.7Q28.3,-37.1 29.8,-28.3Q37.9,-37.2 42.6,-46.6L51,-41.1Q43.3,-27 32.6,-16.3Q34.2,-10.8 36.9,-6.5Q38.3,-4.1 39.1,-3.25Q39.9,-2.4 40.9,-2.4Q42,-2.4 42.7,-3.7Q43.4,-5 44.1,-8.3Q45.1,-13.1 45.5,-16.7ZM78.5,-80.3L88.5,-79.9L88.5,-2.7Q88.5,1.9 87.4,4.3Q86.3,6.7 83.45,7.85Q80.6,9 74.9,9.5L69,10L65.7,-0.6L72.3,-1Q76,-1.2 77.25,-2.25Q78.5,-3.3 78.5,-6.7L78.5,-80.3ZM58.5,-71.5L68.8,-71.1L68.8,-12.7L58.5,-12.7L58.5,-71.5Z"></path><path transform="translate(0 200)" d="M34.4,-57.1L34.4,-0L20.3,-0L20.3,-57.1L1.8,-57.1L1.8,-69.4L52.9,-69.4L52.9,-57.1L34.4,-57.1Z"></path><path transform="translate(55 200)" d="M56,-37L56,-0L42.5,-0L42.5,-33.3Q42.5,-39.1 40.6,-41.5Q38.7,-43.9 33.5,-43.9Q28.5,-43.9 25.45,-42.05Q22.4,-40.2 21.1,-35.6L21.1,-0L7.6,-0L7.6,-76L21.1,-76L21.1,-47.2Q23.2,-51.1 27.65,-53.05Q32.1,-55 38,-55Q47.8,-55 51.9,-50.55Q56,-46.1 56,-37Z"></path><path transform="translate(118 200)" d="M53.4,-24.2L18.3,-22Q18.6,-15.6 22.15,-12.65Q25.7,-9.7 33.3,-9.7Q38,-9.7 43.1,-10.85Q48.2,-12 51.1,-13.5L51.1,-2.7Q48.5,-1.2 42.9,-0.1Q37.3,1 30.9,1Q22.2,1 16.5,-1.55Q10.8,-4.1 7.8,-10.25Q4.8,-16.4 4.8,-27Q4.8,-37.6 7.8,-43.75Q10.8,-49.9 16.55,-52.45Q22.3,-55 31,-55Q44.1,-55 49,-48.85Q53.9,-42.7 53.9,-31.5Q53.9,-28.5 53.4,-24.2ZM41.5,-33.2Q41.5,-38.8 39.35,-41.8Q37.2,-44.8 31,-44.8Q24.1,-44.8 21.35,-41.65Q18.6,-38.5 18.3,-31.4L41.5,-33.2Z"></path><path transform="translate(176 200)" d=""></path><path transform="translate(202 200)" d="M57.9,-46.1Q57.9,-37.2 55.15,-31.95Q52.4,-26.7 46.55,-24.35Q40.7,-22 30.9,-22L22.1,-22L22.1,-0L8,-0L8,-69.4L30.9,-69.4Q41.2,-69.4 47.05,-67.05Q52.9,-64.7 55.4,-59.65Q57.9,-54.6 57.9,-46.1ZM29.1,-33.3Q34.6,-33.3 37.7,-34.4Q40.8,-35.5 42.15,-38.2Q43.5,-40.9 43.5,-45.8Q43.5,-52.7 40.3,-55.4Q37.1,-58.1 29.1,-58.1L22.1,-58.1L22.1,-33.3L29.1,-33.3Z"></path><path transform="translate(265 200)" d="M37.7,-43L36.4,-43Q23.4,-43 21.1,-31.4L21.1,-0L7.6,-0L7.6,-54L21.1,-54L21.1,-44.3Q23.4,-50.4 27.4,-52.7Q31.4,-55 37,-55L38.1,-55L37.7,-43Z"></path><path transform="translate(304 200)" d="M4.8,-27Q4.8,-37.6 7.8,-43.75Q10.8,-49.9 16.5,-52.45Q22.2,-55 30.9,-55Q39.6,-55 45.35,-52.45Q51.1,-49.9 54.1,-43.75Q57.1,-37.6 57.1,-27Q57.1,-16.4 54.1,-10.25Q51.1,-4.1 45.35,-1.55Q39.6,1 30.9,1Q22.2,1 16.5,-1.55Q10.8,-4.1 7.8,-10.25Q4.8,-16.4 4.8,-27ZM30.9,-9.3Q35.8,-9.3 38.45,-10.9Q41.1,-12.5 42.2,-16.25Q43.3,-20 43.3,-27Q43.3,-33.9 42.15,-37.7Q41,-41.5 38.3,-43.15Q35.6,-44.8 30.9,-44.8Q26.1,-44.8 23.45,-43.15Q20.8,-41.5 19.7,-37.7Q18.6,-33.9 18.6,-27Q18.6,-20.1 19.75,-16.3Q20.9,-12.5 23.55,-10.9Q26.2,-9.3 30.9,-9.3Z"></path><path transform="translate(366 200)" d="M6.6,-69.1Q6.6,-72.4 7.2,-73.85Q7.8,-75.3 9.3,-75.75Q10.8,-76.2 14.1,-76.2Q17.4,-76.2 18.95,-75.75Q20.5,-75.3 21.1,-73.85Q21.7,-72.4 21.7,-69.1Q21.7,-65.9 21.05,-64.4Q20.4,-62.9 18.9,-62.4Q17.4,-61.9 14.1,-61.9Q10.9,-61.9 9.35,-62.4Q7.8,-62.9 7.2,-64.4Q6.6,-65.9 6.6,-69.1ZM-5.6,9.4Q-2.8,9.8 -0.4,9.8Q2.9,9.8 4.55,8.8Q6.2,7.8 6.8,5.55Q7.4,3.3 7.4,-1L7.4,-54L20.8,-54L20.8,-0.3Q20.8,7.9 18.55,12.35Q16.3,16.8 12,18.4Q7.7,20 0.8,20Q-2.4,20 -5.6,19.5L-5.6,9.4Z"></path><path transform="translate(394 200)" d="M53.4,-24.2L18.3,-22Q18.6,-15.6 22.15,-12.65Q25.7,-9.7 33.3,-9.7Q38,-9.7 43.1,-10.85Q48.2,-12 51.1,-13.5L51.1,-2.7Q48.5,-1.2 42.9,-0.1Q37.3,1 30.9,1Q22.2,1 16.5,-1.55Q10.8,-4.1 7.8,-10.25Q4.8,-16.4 4.8,-27Q4.8,-37.6 7.8,-43.75Q10.8,-49.9 16.55,-52.45Q22.3,-55 31,-55Q44.1,-55 49,-48.85Q53.9,-42.7 53.9,-31.5Q53.9,-28.5 53.4,-24.2ZM41.5,-33.2Q41.5,-38.8 39.35,-41.8Q37.2,-44.8 31,-44.8Q24.1,-44.8 21.35,-41.65Q18.6,-38.5 18.3,-31.4L41.5,-33.2Z"></path><path transform="translate(452 200)" d="M4.8,-27Q4.8,-37.6 7.85,-43.75Q10.9,-49.9 16.65,-52.45Q22.4,-55 31.1,-55Q39.2,-55 45.1,-53.2L45.1,-41.8Q39.4,-43.9 32.7,-43.9Q27.5,-43.9 24.5,-42.4Q21.5,-40.9 20.05,-37.2Q18.6,-33.5 18.6,-26.9Q18.6,-20.4 20.05,-16.75Q21.5,-13.1 24.6,-11.65Q27.7,-10.2 33,-10.2Q40.2,-10.2 45.5,-12.3L45.5,-1Q43.1,-0.2 39,0.4Q34.9,1 31.1,1Q22.4,1 16.65,-1.55Q10.9,-4.1 7.85,-10.25Q4.8,-16.4 4.8,-27Z"></path><path transform="translate(502 200)" d="M28.5,-10Q31.2,-10 33.1,-10.4L33.1,0.1Q29.6,0.6 26.3,0.6Q19.5,0.6 15.75,-0.9Q12,-2.4 10.3,-6.2Q8.6,-10 8.6,-17.1L8.6,-43.3L1.3,-43.3L1.3,-54L8.6,-54L8.6,-66.8L22.1,-66.8L22.1,-54L33.6,-54L33.6,-43.3L22.1,-43.3L22.1,-18.2Q22.1,-14.8 22.6,-13.1Q23.1,-11.4 24.45,-10.7Q25.8,-10 28.5,-10Z"></path><path transform="translate(537 200)" d=""></path><path transform="translate(563 200)" d="M22.1,-39.9L47.7,-39.9L47.7,-27.7L22.1,-27.7L22.1,-0L8,-0L8,-69.4L49.7,-69.4L49.7,-57.2L22.1,-57.2L22.1,-39.9Z"></path><path transform="translate(617 200)" d="M4.8,-27Q4.8,-37.6 7.8,-43.75Q10.8,-49.9 16.5,-52.45Q22.2,-55 30.9,-55Q39.6,-55 45.35,-52.45Q51.1,-49.9 54.1,-43.75Q57.1,-37.6 57.1,-27Q57.1,-16.4 54.1,-10.25Q51.1,-4.1 45.35,-1.55Q39.6,1 30.9,1Q22.2,1 16.5,-1.55Q10.8,-4.1 7.8,-10.25Q4.8,-16.4 4.8,-27ZM30.9,-9.3Q35.8,-9.3 38.45,-10.9Q41.1,-12.5 42.2,-16.25Q43.3,-20 43.3,-27Q43.3,-33.9 42.15,-37.7Q41,-41.5 38.3,-43.15Q35.6,-44.8 30.9,-44.8Q26.1,-44.8 23.45,-43.15Q20.8,-41.5 19.7,-37.7Q18.6,-33.9 18.6,-27Q18.6,-20.1 19.75,-16.3Q20.9,-12.5 23.55,-10.9Q26.2,-9.3 30.9,-9.3Z"></path><path transform="translate(679 200)" d="M37.7,-43L36.4,-43Q23.4,-43 21.1,-31.4L21.1,-0L7.6,-0L7.6,-54L21.1,-54L21.1,-44.3Q23.4,-50.4 27.4,-52.7Q31.4,-55 37,-55L38.1,-55L37.7,-43Z"></path><path transform="translate(719 200)" d=""></path><path transform="translate(745 200)" d="M16.7,-69.4L27.2,-16.7L27.8,-16.7L39.1,-62.4L55.4,-62.4L66.2,-16.7L66.8,-16.7L77.5,-69.4L92,-69.4L76,-0L58.3,-0L47,-45.3L46.4,-45.3L34.8,-0L17.2,-0L2,-69.4L16.7,-69.4Z"></path><path transform="translate(837 200)" d="M53.4,-24.2L18.3,-22Q18.6,-15.6 22.15,-12.65Q25.7,-9.7 33.3,-9.7Q38,-9.7 43.1,-10.85Q48.2,-12 51.1,-13.5L51.1,-2.7Q48.5,-1.2 42.9,-0.1Q37.3,1 30.9,1Q22.2,1 16.5,-1.55Q10.8,-4.1 7.8,-10.25Q4.8,-16.4 4.8,-27Q4.8,-37.6 7.8,-43.75Q10.8,-49.9 16.55,-52.45Q22.3,-55 31,-55Q44.1,-55 49,-48.85Q53.9,-42.7 53.9,-31.5Q53.9,-28.5 53.4,-24.2ZM41.5,-33.2Q41.5,-38.8 39.35,-41.8Q37.2,-44.8 31,-44.8Q24.1,-44.8 21.35,-41.65Q18.6,-38.5 18.3,-31.4L41.5,-33.2Z"></path><path transform="translate(895 200)" d="M59.2,-27Q59.2,-13.9 54.5,-6.45Q49.8,1 37.6,1Q30.3,1 26.4,-1.3Q22.5,-3.6 20.8,-7.9L19.8,-0L7.6,-0L7.6,-76L21.1,-76L21.1,-46.9Q25,-55 37.6,-55Q46.1,-55 50.85,-51.65Q55.6,-48.3 57.4,-42.25Q59.2,-36.2 59.2,-27ZM33.6,-9.3Q40.8,-9.3 43.1,-13.9Q45.4,-18.5 45.4,-27Q45.4,-32.8 44.55,-36.6Q43.7,-40.4 41.1,-42.6Q38.5,-44.8 33.6,-44.8Q26.1,-44.8 23.2,-40.4Q20.3,-36 20.3,-27Q20.3,-18.2 23.25,-13.75Q26.2,-9.3 33.6,-9.3Z"></path></svg>